<?xml version="1.0" encoding="UTF-8" standalone="no"?>
<!DOCTYPE svg PUBLIC "-//W3C//DTD SVG 1.1//EN" "http://www.w3.org/Graphics/SVG/1.1/DTD/svg11.dtd">
<svg width="100%" height="100%" viewBox="0 0 20 18" version="1.1" xmlns="http://www.w3.org/2000/svg" xmlns:xlink="http://www.w3.org/1999/xlink" xml:space="preserve" xmlns:serif="http://www.serif.com/" style="fill-rule:evenodd;clip-rule:evenodd;stroke-linejoin:round;stroke-miterlimit:2;">
      <path d="M17,6.5 C17,5.67157288 16.3284271,5 15.5,5 L8.5,5 C7.67157288,5 7,5.67157288 7,6.5 L7,18.6649395 L11.760062,16.0613318 C11.9095691,15.9795561 12.0904309,15.9795561 12.239938,16.0613318 L17,18.6649395 L17,6.5 Z M6.73993801,19.9469992 C6.40673701,20.1292499 6,19.8881181 6,19.508331 L6,6.5 C6,5.11928813 7.11928813,4 8.5,4 L15.5,4 C16.8807119,4 18,5.11928813 18,6.5 L18,19.508331 C18,19.8881181 17.593263,20.1292499 17.260062,19.9469992 L12,17.0699069 L6.73993801,19.9469992 Z"/>
</svg>
